<?xml version="1.0" encoding="UTF-8" standalone="no"?>
<!-- Created with Inkscape (http://www.inkscape.org/) -->

<svg
   width="500.79999mm"
   height="44.450001mm"
   viewBox="0 0 500.79999 44.450001"
   inkscape:version="1.3.1 (9b9bdc1480, 2023-11-25, custom)"
   sodipodi:docname="END.svg"
   version="1.1"
   id="svg1"
   xmlns:inkscape="http://www.inkscape.org/namespaces/inkscape"
   xmlns:sodipodi="http://sodipodi.sourceforge.net/DTD/sodipodi-0.dtd"
   xmlns="http://www.w3.org/2000/svg"
   xmlns:svg="http://www.w3.org/2000/svg">
  <sodipodi:namedview
     inkscape:zoom="0.51402139"
     inkscape:cx="970.77672"
     inkscape:cy="262.63498"
     inkscape:window-width="1854"
     inkscape:window-height="1016"
     inkscape:window-x="66"
     inkscape:window-y="27"
     inkscape:window-maximized="1"
     id="namedview1"
     pagecolor="#ffffff"
     bordercolor="#111111"
     borderopacity="1"
     inkscape:showpageshadow="0"
     inkscape:pageopacity="0"
     inkscape:pagecheckerboard="1"
     inkscape:deskcolor="#d1d1d1"
     inkscape:document-units="mm" />
  <defs
     id="defs1" />
  <rect
     style="fill:#ffffff;fill-opacity:1;stroke-width:1.28516"
     id="rect14-2"
     width="450"
     height="17.450001"
     x="25.4"
     y="27"
     inkscape:label="bg" />
  <path
     id="rect13"
     style="stroke-width:0.376733"
     d="m 0,27 25.4,-27 0,44.450001 H 0 Z"
     sodipodi:nodetypes="ccccc"
     inkscape:label="left-side" />
  <path
     id="rect13-5"
     style="stroke-width:0.376733"
     d="M 500.8,27 475.4,0 v 44.450001 h 25.4 z"
     sodipodi:nodetypes="ccccc"
     inkscape:label="right-side" />
  <rect
     style="fill:#000000;fill-opacity:1;stroke-width:1.5986"
     id="rect14"
     width="450"
     height="27"
     x="25.4"
     y="0"
     inkscape:label="top-side" />
  <path
     id="rect16"
     style="fill:#ffffff;stroke-width:0.102387"
     d="M 41.974435,3.5000007 H 45 L 33.025565,23.5 H 30 Z"
     sodipodi:nodetypes="ccccc"
     inkscape:label="01" />
  <path
     id="rect16-7"
     style="fill:#ffffff;stroke-width:0.101954"
     d="m 56.873253,3.5000005 h 3 L 48,23.500001 h -3 z"
     sodipodi:nodetypes="ccccc"
     inkscape:label="02" />
  <path
     id="rect16-6"
     style="fill:#ffffff;stroke-width:0.102387"
     d="M 71.974435,3.5000005 H 75 L 63.025565,23.5 H 60 Z"
     sodipodi:nodetypes="ccccc"
     inkscape:label="03" />
  <path
     id="rect16-7-0"
     style="fill:#ffffff;stroke-width:0.101954"
     d="m 86.873253,3.5000003 h 3 L 78,23.500001 h -3 z"
     sodipodi:nodetypes="ccccc"
     inkscape:label="04" />
  <path
     id="rect16-1"
     style="fill:#ffffff;stroke-width:0.102387"
     d="M 101.97444,3.5000007 H 105 L 93.02557,23.5 H 90 Z"
     sodipodi:nodetypes="ccccc"
     inkscape:label="05" />
  <path
     id="rect16-7-8"
     style="fill:#ffffff;stroke-width:0.101954"
     d="m 116.87325,3.5000005 h 3 L 108,23.500001 h -3 z"
     sodipodi:nodetypes="ccccc"
     inkscape:label="06" />
  <path
     id="rect16-6-7"
     style="fill:#ffffff;stroke-width:0.102387"
     d="M 131.97444,3.5000005 H 135 L 123.02557,23.5 H 120 Z"
     sodipodi:nodetypes="ccccc"
     inkscape:label="07" />
  <path
     id="rect16-7-0-9"
     style="fill:#ffffff;stroke-width:0.101954"
     d="m 146.87325,3.5000002 h 3 L 138,23.500001 h -3 z"
     sodipodi:nodetypes="ccccc"
     inkscape:label="08" />
  <path
     id="rect16-3"
     style="fill:#ffffff;stroke-width:0.102387"
     d="M 161.97443,3.5000005 H 165 L 153.02556,23.500001 H 150 Z"
     sodipodi:nodetypes="ccccc"
     inkscape:label="09" />
  <path
     id="rect16-7-7"
     style="fill:#ffffff;stroke-width:0.101954"
     d="m 176.87325,3.5000004 h 3 L 168,23.500001 h -3 z"
     sodipodi:nodetypes="ccccc"
     inkscape:label="10" />
  <path
     id="rect16-6-5"
     style="fill:#ffffff;stroke-width:0.102387"
     d="M 191.97443,3.5000005 H 195 L 183.02556,23.500001 H 180 Z"
     sodipodi:nodetypes="ccccc"
     inkscape:label="11" />
  <path
     id="rect16-7-0-92"
     style="fill:#ffffff;stroke-width:0.101954"
     d="m 206.87326,3.5 h 3 L 198,23.500001 h -3 z"
     sodipodi:nodetypes="ccccc"
     inkscape:label="12" />
  <path
     id="rect16-1-2"
     style="fill:#ffffff;stroke-width:0.102387"
     d="M 221.97444,3.5000005 H 225 L 213.02557,23.500001 H 210 Z"
     sodipodi:nodetypes="ccccc"
     inkscape:label="13" />
  <path
     id="rect16-7-8-8"
     style="fill:#ffffff;stroke-width:0.101954"
     d="m 236.87325,3.5 h 3 L 228,23.500001 h -3 z"
     sodipodi:nodetypes="ccccc"
     inkscape:label="14" />
  <path
     id="rect16-6-7-9"
     style="fill:#ffffff;stroke-width:0.102387"
     d="M 251.97444,3.5000005 H 255 L 243.02557,23.500001 H 240 Z"
     sodipodi:nodetypes="ccccc"
     inkscape:label="15" />
  <path
     id="rect16-7-0-9-7"
     style="fill:#ffffff;stroke-width:0.101954"
     d="m 266.87325,3.5 h 3 L 258,23.500001 h -3 z"
     sodipodi:nodetypes="ccccc"
     inkscape:label="16" />
  <path
     id="rect16-2"
     style="fill:#ffffff;stroke-width:0.102387"
     d="M 281.97443,3.500001 H 285 L 273.02556,23.5 H 270 Z"
     sodipodi:nodetypes="ccccc"
     inkscape:label="17" />
  <path
     id="rect16-7-9"
     style="fill:#ffffff;stroke-width:0.101954"
     d="m 296.87325,3.5 h 3 L 288,23.500001 h -3 z"
     sodipodi:nodetypes="ccccc"
     inkscape:label="18" />
  <path
     id="rect16-6-3"
     style="fill:#ffffff;stroke-width:0.102387"
     d="M 311.97443,3.5 H 315 l -11.97444,20 H 300 Z"
     sodipodi:nodetypes="ccccc"
     inkscape:label="19" />
  <path
     id="rect16-7-0-1"
     style="fill:#ffffff;stroke-width:0.101954"
     d="m 326.87325,3.5 h 3 L 318,23.500001 h -3 z"
     sodipodi:nodetypes="ccccc"
     inkscape:label="20" />
  <path
     id="rect16-1-9"
     style="fill:#ffffff;stroke-width:0.102387"
     d="M 341.97444,3.500001 H 345 L 333.02557,23.5 H 330 Z"
     sodipodi:nodetypes="ccccc"
     inkscape:label="21" />
  <path
     id="rect16-7-8-4"
     style="fill:#ffffff;stroke-width:0.101954"
     d="m 356.87325,3.5 h 3 L 348,23.500001 h -3 z"
     sodipodi:nodetypes="ccccc"
     inkscape:label="22" />
  <path
     id="rect16-6-7-7"
     style="fill:#ffffff;stroke-width:0.102387"
     d="M 371.97444,3.5 H 375 l -11.97443,20 H 360 Z"
     sodipodi:nodetypes="ccccc"
     inkscape:label="23" />
  <path
     id="rect16-7-0-9-8"
     style="fill:#ffffff;stroke-width:0.101954"
     d="m 386.87325,3.5 h 3 L 378,23.500001 h -3 z"
     sodipodi:nodetypes="ccccc"
     inkscape:label="24" />
  <path
     id="rect16-3-4"
     style="fill:#ffffff;stroke-width:0.102387"
     d="M 401.97443,3.5 H 405 L 393.02556,23.500001 H 390 Z"
     sodipodi:nodetypes="ccccc"
     inkscape:label="25" />
  <path
     id="rect16-7-7-5"
     style="fill:#ffffff;stroke-width:0.101954"
     d="m 416.87325,3.5 h 3 L 408,23.500001 h -3 z"
     sodipodi:nodetypes="ccccc"
     inkscape:label="26" />
  <path
     id="rect16-6-5-0"
     style="fill:#ffffff;stroke-width:0.102387"
     d="M 431.97443,3.5 H 435 L 423.02556,23.500001 H 420 Z"
     sodipodi:nodetypes="ccccc"
     inkscape:label="27" />
  <path
     id="rect16-7-0-92-3"
     style="fill:#ffffff;stroke-width:0.101954"
     d="m 446.87326,3.5 h 3 L 438,23.500001 h -3 z"
     sodipodi:nodetypes="ccccc"
     inkscape:label="28" />
  <path
     id="rect16-1-2-6"
     style="fill:#ffffff;stroke-width:0.102387"
     d="M 461.97444,3.5 H 465 L 453.02557,23.500001 H 450 Z"
     sodipodi:nodetypes="ccccc"
     inkscape:label="29" />
</svg>
