<?xml version="1.0" encoding="us-ascii" standalone="no"?><svg xmlns="http://www.w3.org/2000/svg" xmlns:xlink="http://www.w3.org/1999/xlink" contentStyleType="text/css" height="640px" preserveAspectRatio="none" style="width:373px;height:640px;background:#FFFFFF;" version="1.1" viewBox="0 0 373 640" width="373px" zoomAndPan="magnify"><defs/><g><!--class Rack--><g id="elem_Rack"><rect fill="#F1F1F1" height="32" id="Rack" rx="2.5" ry="2.5" style="stroke:#181818;stroke-width:0.5;" width="64" x="284" y="240.4083"/><ellipse cx="299" cy="256.4083" fill="#ADD1B2" rx="11" ry="11" style="stroke:#181818;stroke-width:1.0;"/><path d="M301.7656,252.2833 Q301.9219,252.0645 302.1094,251.9551 Q302.2969,251.8458 302.5156,251.8458 Q302.8906,251.8458 303.125,252.1036 Q303.3594,252.3614 303.3594,252.9708 L303.3594,254.4239 Q303.3594,255.0333 303.125,255.2989 Q302.8906,255.5645 302.5156,255.5645 Q302.1719,255.5645 301.9688,255.3614 Q301.7656,255.1739 301.6563,254.6583 Q301.6094,254.2989 301.4219,254.1114 Q301.0938,253.7364 300.4844,253.5176 Q299.875,253.2989 299.25,253.2989 Q298.4844,253.2989 297.8516,253.627 Q297.2188,253.9551 296.7266,254.7051 Q296.2344,255.4551 296.2344,256.4864 L296.2344,257.5801 Q296.2344,258.8145 297.125,259.6348 Q298.0156,260.4551 299.6094,260.4551 Q300.5469,260.4551 301.2031,260.2051 Q301.5938,260.0489 302.0156,259.6114 Q302.2813,259.3458 302.4297,259.2676 Q302.5781,259.1895 302.7813,259.1895 Q303.1094,259.1895 303.3672,259.4473 Q303.625,259.7051 303.625,260.0489 Q303.625,260.3926 303.2813,260.7989 Q302.7813,261.377 301.9844,261.7051 Q300.9063,262.1583 299.6094,262.1583 Q298.0938,262.1583 296.8906,261.5333 Q295.9063,261.0333 295.2188,259.963 Q294.5313,258.8926 294.5313,257.6114 L294.5313,256.4551 Q294.5313,255.127 295.1484,253.9786 Q295.7656,252.8301 296.8594,252.213 Q297.9531,251.5958 299.1875,251.5958 Q299.9219,251.5958 300.5703,251.7598 Q301.2188,251.9239 301.7656,252.2833 Z " fill="#000000"/><text fill="#000000" font-family="sans-serif" font-size="14" lengthAdjust="spacing" textLength="32" x="313" y="262.1368">Rack</text></g><!--class Interface--><g id="elem_Interface"><rect fill="#F1F1F1" height="32" id="Interface" rx="2.5" ry="2.5" style="stroke:#181818;stroke-width:0.5;" width="87" x="81.5" y="443.4083"/><ellipse cx="96.5" cy="459.4083" fill="#ADD1B2" rx="11" ry="11" style="stroke:#181818;stroke-width:1.0;"/><path d="M99.2656,455.2833 Q99.4219,455.0645 99.6094,454.9551 Q99.7969,454.8458 100.0156,454.8458 Q100.3906,454.8458 100.625,455.1036 Q100.8594,455.3614 100.8594,455.9708 L100.8594,457.4239 Q100.8594,458.0333 100.625,458.2989 Q100.3906,458.5645 100.0156,458.5645 Q99.6719,458.5645 99.4688,458.3614 Q99.2656,458.1739 99.1563,457.6583 Q99.1094,457.2989 98.9219,457.1114 Q98.5938,456.7364 97.9844,456.5176 Q97.375,456.2989 96.75,456.2989 Q95.9844,456.2989 95.3516,456.627 Q94.7188,456.9551 94.2266,457.7051 Q93.7344,458.4551 93.7344,459.4864 L93.7344,460.5801 Q93.7344,461.8145 94.625,462.6348 Q95.5156,463.4551 97.1094,463.4551 Q98.0469,463.4551 98.7031,463.2051 Q99.0938,463.0489 99.5156,462.6114 Q99.7813,462.3458 99.9297,462.2676 Q100.0781,462.1895 100.2813,462.1895 Q100.6094,462.1895 100.8672,462.4473 Q101.125,462.7051 101.125,463.0489 Q101.125,463.3926 100.7813,463.7989 Q100.2813,464.377 99.4844,464.7051 Q98.4063,465.1583 97.1094,465.1583 Q95.5938,465.1583 94.3906,464.5333 Q93.4063,464.0333 92.7188,462.963 Q92.0313,461.8926 92.0313,460.6114 L92.0313,459.4551 Q92.0313,458.127 92.6484,456.9786 Q93.2656,455.8301 94.3594,455.213 Q95.4531,454.5958 96.6875,454.5958 Q97.4219,454.5958 98.0703,454.7598 Q98.7188,454.9239 99.2656,455.2833 Z " fill="#000000"/><text fill="#000000" font-family="sans-serif" font-size="14" lengthAdjust="spacing" textLength="55" x="110.5" y="465.1368">Interface</text></g><!--class Location--><g id="elem_Location"><rect fill="#F1F1F1" height="32" id="Location" rx="2.5" ry="2.5" style="stroke:#181818;stroke-width:0.5;" width="86" x="130" y="350.4083"/><ellipse cx="145" cy="366.4083" fill="#ADD1B2" rx="11" ry="11" style="stroke:#181818;stroke-width:1.0;"/><path d="M147.7656,362.2833 Q147.9219,362.0645 148.1094,361.9551 Q148.2969,361.8458 148.5156,361.8458 Q148.8906,361.8458 149.125,362.1036 Q149.3594,362.3614 149.3594,362.9708 L149.3594,364.4239 Q149.3594,365.0333 149.125,365.2989 Q148.8906,365.5645 148.5156,365.5645 Q148.1719,365.5645 147.9688,365.3614 Q147.7656,365.1739 147.6563,364.6583 Q147.6094,364.2989 147.4219,364.1114 Q147.0938,363.7364 146.4844,363.5176 Q145.875,363.2989 145.25,363.2989 Q144.4844,363.2989 143.8516,363.627 Q143.2188,363.9551 142.7266,364.7051 Q142.2344,365.4551 142.2344,366.4864 L142.2344,367.5801 Q142.2344,368.8145 143.125,369.6348 Q144.0156,370.4551 145.6094,370.4551 Q146.5469,370.4551 147.2031,370.2051 Q147.5938,370.0489 148.0156,369.6114 Q148.2813,369.3458 148.4297,369.2676 Q148.5781,369.1895 148.7813,369.1895 Q149.1094,369.1895 149.3672,369.4473 Q149.625,369.7051 149.625,370.0489 Q149.625,370.3926 149.2813,370.7989 Q148.7813,371.377 147.9844,371.7051 Q146.9063,372.1583 145.6094,372.1583 Q144.0938,372.1583 142.8906,371.5333 Q141.9063,371.0333 141.2188,369.963 Q140.5313,368.8926 140.5313,367.6114 L140.5313,366.4551 Q140.5313,365.127 141.1484,363.9786 Q141.7656,362.8301 142.8594,362.213 Q143.9531,361.5958 145.1875,361.5958 Q145.9219,361.5958 146.5703,361.7598 Q147.2188,361.9239 147.7656,362.2833 Z " fill="#000000"/><text fill="#000000" font-family="sans-serif" font-size="14" lengthAdjust="spacing" textLength="54" x="159" y="372.1368">Location</text></g><!--class PDevice--><g id="elem_PDevice"><rect fill="#F1F1F1" height="32" id="PDevice" rx="2.5" ry="2.5" style="stroke:#181818;stroke-width:0.5;" width="84" x="91" y="130.4083"/><ellipse cx="106" cy="146.4083" fill="#ADD1B2" rx="11" ry="11" style="stroke:#181818;stroke-width:1.0;"/><path d="M108.7656,142.2833 Q108.9219,142.0645 109.1094,141.9551 Q109.2969,141.8458 109.5156,141.8458 Q109.8906,141.8458 110.125,142.1036 Q110.3594,142.3614 110.3594,142.9708 L110.3594,144.4239 Q110.3594,145.0333 110.125,145.2989 Q109.8906,145.5645 109.5156,145.5645 Q109.1719,145.5645 108.9688,145.3614 Q108.7656,145.1739 108.6563,144.6583 Q108.6094,144.2989 108.4219,144.1114 Q108.0938,143.7364 107.4844,143.5176 Q106.875,143.2989 106.25,143.2989 Q105.4844,143.2989 104.8516,143.627 Q104.2188,143.9551 103.7266,144.7051 Q103.2344,145.4551 103.2344,146.4864 L103.2344,147.5801 Q103.2344,148.8145 104.125,149.6348 Q105.0156,150.4551 106.6094,150.4551 Q107.5469,150.4551 108.2031,150.2051 Q108.5938,150.0489 109.0156,149.6114 Q109.2813,149.3458 109.4297,149.2676 Q109.5781,149.1895 109.7813,149.1895 Q110.1094,149.1895 110.3672,149.4473 Q110.625,149.7051 110.625,150.0489 Q110.625,150.3926 110.2813,150.7989 Q109.7813,151.377 108.9844,151.7051 Q107.9063,152.1583 106.6094,152.1583 Q105.0938,152.1583 103.8906,151.5333 Q102.9063,151.0333 102.2188,149.963 Q101.5313,148.8926 101.5313,147.6114 L101.5313,146.4551 Q101.5313,145.127 102.1484,143.9786 Q102.7656,142.8301 103.8594,142.213 Q104.9531,141.5958 106.1875,141.5958 Q106.9219,141.5958 107.5703,141.7598 Q108.2188,141.9239 108.7656,142.2833 Z " fill="#000000"/><text fill="#000000" font-family="sans-serif" font-size="14" lengthAdjust="spacing" textLength="52" x="120" y="152.1368">PDevice</text></g><!--class VDevice--><g id="elem_VDevice"><rect fill="#F1F1F1" height="32" id="VDevice" rx="2.5" ry="2.5" style="stroke:#181818;stroke-width:0.5;" width="84" x="85" y="20.4083"/><ellipse cx="100" cy="36.4083" fill="#ADD1B2" rx="11" ry="11" style="stroke:#181818;stroke-width:1.0;"/><path d="M102.7656,32.2833 Q102.9219,32.0645 103.1094,31.9551 Q103.2969,31.8458 103.5156,31.8458 Q103.8906,31.8458 104.125,32.1036 Q104.3594,32.3614 104.3594,32.9708 L104.3594,34.4239 Q104.3594,35.0333 104.125,35.2989 Q103.8906,35.5645 103.5156,35.5645 Q103.1719,35.5645 102.9688,35.3614 Q102.7656,35.1739 102.6563,34.6583 Q102.6094,34.2989 102.4219,34.1114 Q102.0938,33.7364 101.4844,33.5176 Q100.875,33.2989 100.25,33.2989 Q99.4844,33.2989 98.8516,33.627 Q98.2188,33.9551 97.7266,34.7051 Q97.2344,35.4551 97.2344,36.4864 L97.2344,37.5801 Q97.2344,38.8145 98.125,39.6348 Q99.0156,40.4551 100.6094,40.4551 Q101.5469,40.4551 102.2031,40.2051 Q102.5938,40.0489 103.0156,39.6114 Q103.2813,39.3458 103.4297,39.2676 Q103.5781,39.1895 103.7813,39.1895 Q104.1094,39.1895 104.3672,39.4473 Q104.625,39.7051 104.625,40.0489 Q104.625,40.3926 104.2813,40.7989 Q103.7813,41.377 102.9844,41.7051 Q101.9063,42.1583 100.6094,42.1583 Q99.0938,42.1583 97.8906,41.5333 Q96.9063,41.0333 96.2188,39.963 Q95.5313,38.8926 95.5313,37.6114 L95.5313,36.4551 Q95.5313,35.127 96.1484,33.9786 Q96.7656,32.8301 97.8594,32.213 Q98.9531,31.5958 100.1875,31.5958 Q100.9219,31.5958 101.5703,31.7598 Q102.2188,31.9239 102.7656,32.2833 Z " fill="#000000"/><text fill="#000000" font-family="sans-serif" font-size="14" lengthAdjust="spacing" textLength="52" x="114" y="42.1368">VDevice</text></g><!--class Network--><g id="elem_Network"><rect fill="#F1F1F1" height="32" id="Network" rx="2.5" ry="2.5" style="stroke:#181818;stroke-width:0.5;" width="82" x="216" y="130.4083"/><ellipse cx="231" cy="146.4083" fill="#ADD1B2" rx="11" ry="11" style="stroke:#181818;stroke-width:1.0;"/><path d="M233.7656,142.2833 Q233.9219,142.0645 234.1094,141.9551 Q234.2969,141.8458 234.5156,141.8458 Q234.8906,141.8458 235.125,142.1036 Q235.3594,142.3614 235.3594,142.9708 L235.3594,144.4239 Q235.3594,145.0333 235.125,145.2989 Q234.8906,145.5645 234.5156,145.5645 Q234.1719,145.5645 233.9688,145.3614 Q233.7656,145.1739 233.6563,144.6583 Q233.6094,144.2989 233.4219,144.1114 Q233.0938,143.7364 232.4844,143.5176 Q231.875,143.2989 231.25,143.2989 Q230.4844,143.2989 229.8516,143.627 Q229.2188,143.9551 228.7266,144.7051 Q228.2344,145.4551 228.2344,146.4864 L228.2344,147.5801 Q228.2344,148.8145 229.125,149.6348 Q230.0156,150.4551 231.6094,150.4551 Q232.5469,150.4551 233.2031,150.2051 Q233.5938,150.0489 234.0156,149.6114 Q234.2813,149.3458 234.4297,149.2676 Q234.5781,149.1895 234.7813,149.1895 Q235.1094,149.1895 235.3672,149.4473 Q235.625,149.7051 235.625,150.0489 Q235.625,150.3926 235.2813,150.7989 Q234.7813,151.377 233.9844,151.7051 Q232.9063,152.1583 231.6094,152.1583 Q230.0938,152.1583 228.8906,151.5333 Q227.9063,151.0333 227.2188,149.963 Q226.5313,148.8926 226.5313,147.6114 L226.5313,146.4551 Q226.5313,145.127 227.1484,143.9786 Q227.7656,142.8301 228.8594,142.213 Q229.9531,141.5958 231.1875,141.5958 Q231.9219,141.5958 232.5703,141.7598 Q233.2188,141.9239 233.7656,142.2833 Z " fill="#000000"/><text fill="#000000" font-family="sans-serif" font-size="14" lengthAdjust="spacing" textLength="50" x="245" y="152.1368">Network</text></g><!--class Link--><g id="elem_Link"><rect fill="#F1F1F1" height="32" id="Link" rx="2.5" ry="2.5" style="stroke:#181818;stroke-width:0.5;" width="58" x="96" y="601.4083"/><ellipse cx="111" cy="617.4083" fill="#ADD1B2" rx="11" ry="11" style="stroke:#181818;stroke-width:1.0;"/><path d="M113.7656,613.2833 Q113.9219,613.0645 114.1094,612.9551 Q114.2969,612.8458 114.5156,612.8458 Q114.8906,612.8458 115.125,613.1036 Q115.3594,613.3614 115.3594,613.9708 L115.3594,615.4239 Q115.3594,616.0333 115.125,616.2989 Q114.8906,616.5645 114.5156,616.5645 Q114.1719,616.5645 113.9688,616.3614 Q113.7656,616.1739 113.6563,615.6583 Q113.6094,615.2989 113.4219,615.1114 Q113.0938,614.7364 112.4844,614.5176 Q111.875,614.2989 111.25,614.2989 Q110.4844,614.2989 109.8516,614.627 Q109.2188,614.9551 108.7266,615.7051 Q108.2344,616.4551 108.2344,617.4864 L108.2344,618.5801 Q108.2344,619.8145 109.125,620.6348 Q110.0156,621.4551 111.6094,621.4551 Q112.5469,621.4551 113.2031,621.2051 Q113.5938,621.0489 114.0156,620.6114 Q114.2813,620.3458 114.4297,620.2676 Q114.5781,620.1895 114.7813,620.1895 Q115.1094,620.1895 115.3672,620.4473 Q115.625,620.7051 115.625,621.0489 Q115.625,621.3926 115.2813,621.7989 Q114.7813,622.377 113.9844,622.7051 Q112.9063,623.1583 111.6094,623.1583 Q110.0938,623.1583 108.8906,622.5333 Q107.9063,622.0333 107.2188,620.963 Q106.5313,619.8926 106.5313,618.6114 L106.5313,617.4551 Q106.5313,616.127 107.1484,614.9786 Q107.7656,613.8301 108.8594,613.213 Q109.9531,612.5958 111.1875,612.5958 Q111.9219,612.5958 112.5703,612.7598 Q113.2188,612.9239 113.7656,613.2833 Z " fill="#000000"/><text fill="#000000" font-family="sans-serif" font-size="14" lengthAdjust="spacing" textLength="26" x="125" y="623.1368">Link</text></g><ellipse cx="125" cy="538.4083" fill="#181818" rx="2" ry="2" style="stroke:#181818;stroke-width:1.0;"/><!--reverse link Rack to Interface--><g id="link_Rack_Interface"><path codeLine="3" d="M335.9564,282.2034 C342.1064,290.4634 341.69,291.5683 345,302.4083 C355.39,336.4183 366.65,353.4683 346,382.4083 C305.7,438.8883 220.63,453.8183 168.58,457.5183 " fill="none" id="Rack-backto-Interface" style="stroke:#181818;stroke-width:1.0;"/><polygon fill="#181818" points="328.79,272.5783,329.1648,279.7796,335.9564,282.2034,335.5816,275.002,328.79,272.5783" style="stroke:#181818;stroke-width:1.0;"/></g><!--reverse link Location to Interface--><g id="link_Location_Interface"><path codeLine="4" d="M159.473,393.053 C150.583,409.913 141.84,426.4883 132.94,443.3583 " fill="none" id="Location-backto-Interface" style="stroke:#181818;stroke-width:1.0;"/><polygon fill="#181818" points="165.07,382.4383,158.7332,385.88,159.473,393.053,165.8098,389.6113,165.07,382.4383" style="stroke:#181818;stroke-width:1.0;"/></g><!--reverse link PDevice to Interface--><g id="link_PDevice_Interface"><path codeLine="5" d="M127.775,174.3202 C120.735,211.6302 106.48,299.3383 113,382.4083 C114.67,403.7183 118.94,428.0783 121.91,443.3483 " fill="none" id="PDevice-backto-Interface" style="stroke:#181818;stroke-width:1.0;"/><polygon fill="#181818" points="130,162.5283,124.9569,167.6826,127.775,174.3202,132.8181,169.1659,130,162.5283" style="stroke:#181818;stroke-width:1.0;"/></g><!--reverse link VDevice to Interface--><g id="link_VDevice_Interface"><path codeLine="6" d="M78.2062,57.5575 C42.7162,74.3775 6,100.2183 6,145.4083 C6,145.4083 6,145.4083 6,367.4083 C6,406.6783 47.4,431.2883 81.36,444.8583 " fill="none" id="VDevice-backto-Interface" style="stroke:#181818;stroke-width:1.0;"/><polygon fill="#181818" points="89.05,52.4183,81.915,51.3733,78.2062,57.5575,85.3412,58.6025,89.05,52.4183" style="stroke:#181818;stroke-width:1.0;"/></g><!--link Rack to Location--><g id="link_Rack_Location"><path codeLine="8" d="M296.12,272.4283 C268.95,292.9383 220.49,329.5383 193.18,350.1683 " fill="none" id="Rack-Location" style="stroke:#181818;stroke-width:1.0;"/><polygon fill="#000000" points="254.01,314.5973,262.9991,311.4915,259.4569,306.801,254.01,314.5973" style="stroke:#000000;stroke-width:1.0;"/><text fill="#000000" font-family="sans-serif" font-size="13" lengthAdjust="spacing" textLength="69" x="267" y="316.9034">physicaly in</text><text fill="#000000" font-family="sans-serif" font-size="13" lengthAdjust="spacing" textLength="5" x="283.7066" y="293.9382">*</text><text fill="#000000" font-family="sans-serif" font-size="13" lengthAdjust="spacing" textLength="7" x="191.7053" y="339.6921">1</text></g><!--link Location to Location--><g id="link_Location_Location"><path codeLine="9" d="M216.31,357.8883 C235,357.1883 251,360.0283 251,366.4083 C251,372.7883 235,375.6283 216.31,374.9283 " fill="none" id="Location-Location" style="stroke:#181818;stroke-width:1.0;"/><polygon fill="#000000" points="255.8129,371.5805,259.0883,362.6518,253.2145,362.4318,255.8129,371.5805" style="stroke:#000000;stroke-width:1.0;"/><text fill="#000000" font-family="sans-serif" font-size="13" lengthAdjust="spacing" textLength="69" x="270" y="371.9034">physicaly in</text><text fill="#000000" font-family="sans-serif" font-size="13" lengthAdjust="spacing" textLength="5" x="223.8973" y="352.6764">*</text><text fill="#000000" font-family="sans-serif" font-size="13" lengthAdjust="spacing" textLength="7" x="224.0629" y="372.5386">1</text></g><!--link PDevice to Location--><g id="link_PDevice_Location"><path codeLine="10" d="M135.81,162.7383 C143.17,202.8583 162.94,310.6083 170.24,350.3883 " fill="none" id="PDevice-Location" style="stroke:#181818;stroke-width:1.0;"/><polygon fill="#000000" points="160.9023,261.502,162.1607,252.075,156.3793,253.1358,160.9023,261.502" style="stroke:#000000;stroke-width:1.0;"/><text fill="#000000" font-family="sans-serif" font-size="13" lengthAdjust="spacing" textLength="69" x="169" y="261.9034">physicaly in</text><text fill="#000000" font-family="sans-serif" font-size="13" lengthAdjust="spacing" textLength="5" x="130.9088" y="184.0446">*</text><text fill="#000000" font-family="sans-serif" font-size="13" lengthAdjust="spacing" textLength="7" x="161.0881" y="339.6869">1</text></g><!--link PDevice to Rack--><g id="link_PDevice_Rack"><path codeLine="11" d="M158.45,162.4283 C193.31,182.9983 255.57,219.7483 290.48,240.3483 " fill="none" id="PDevice-Rack" style="stroke:#181818;stroke-width:1.0;"/><polygon fill="#000000" points="244.306,204.1253,238.0101,196.9971,235.0226,202.0591,244.306,204.1253" style="stroke:#000000;stroke-width:1.0;"/><text fill="#000000" font-family="sans-serif" font-size="13" lengthAdjust="spacing" textLength="69" x="249" y="206.9034">physicaly in</text><text fill="#000000" font-family="sans-serif" font-size="13" lengthAdjust="spacing" textLength="5" x="161.0522" y="183.9382">*</text><text fill="#000000" font-family="sans-serif" font-size="13" lengthAdjust="spacing" textLength="22" x="255.9263" y="229.6332">0..1</text></g><!--link VDevice to PDevice--><g id="link_VDevice_PDevice"><path codeLine="12" d="M125.05,52.4583 C123.69,65.2483 122.38,84.0683 124,100.4083 C124.99,110.3983 127.18,121.4583 129.16,130.1083 " fill="none" id="VDevice-PDevice" style="stroke:#181818;stroke-width:1.0;"/><polygon fill="#000000" points="129.2643,96.5771,131.721,87.3893,125.8514,87.7,129.2643,96.5771" style="stroke:#000000;stroke-width:1.0;"/><text fill="#000000" font-family="sans-serif" font-size="13" lengthAdjust="spacing" textLength="75" x="138" y="96.9034">supported by</text><text fill="#000000" font-family="sans-serif" font-size="13" lengthAdjust="spacing" textLength="5" x="118.5759" y="73.9782">*</text><text fill="#000000" font-family="sans-serif" font-size="13" lengthAdjust="spacing" textLength="7" x="119.7286" y="119.6122">1</text></g><!--link VDevice to VDevice--><g id="link_VDevice_VDevice"><path codeLine="13" d="M169.37,26.4183 C187.98,25.5383 204,28.8683 204,36.4083 C204,43.9483 187.98,47.2783 169.37,46.3983 " fill="none" id="VDevice-VDevice" style="stroke:#181818;stroke-width:1.0;"/><polygon fill="#000000" points="208.7638,41.5785,212.1267,32.6823,206.2554,32.4047,208.7638,41.5785" style="stroke:#000000;stroke-width:1.0;"/><text fill="#000000" font-family="sans-serif" font-size="13" lengthAdjust="spacing" textLength="75" x="223" y="41.9034">supported by</text><text fill="#000000" font-family="sans-serif" font-size="13" lengthAdjust="spacing" textLength="5" x="177.082" y="20.8516">*</text><text fill="#000000" font-family="sans-serif" font-size="13" lengthAdjust="spacing" textLength="7" x="176.9672" y="44.2521">1</text></g><!--link VDevice to Network--><g id="link_VDevice_Network"><path codeLine="14" d="M169.42,52.4983 C185.86,59.7783 204.05,69.7183 218,82.4083 C232.85,95.9083 244.08,116.3483 250.59,130.2583 " fill="none" id="VDevice-Network" style="stroke:#181818;stroke-width:1.0;"/><polygon fill="#000000" points="240.6106,95.0429,236.1121,86.6635,232.0459,90.908,240.6106,95.0429" style="stroke:#000000;stroke-width:1.0;"/><text fill="#000000" font-family="sans-serif" font-size="13" lengthAdjust="spacing" textLength="10" x="246" y="96.9034">in</text><text fill="#000000" font-family="sans-serif" font-size="13" lengthAdjust="spacing" textLength="5" x="177.1445" y="73.7281">*</text><text fill="#000000" font-family="sans-serif" font-size="13" lengthAdjust="spacing" textLength="5" x="242.5272" y="119.5122">*</text></g><!--link Interface to apoint21--><g id="link_Interface_apoint21"><path d="M114.6,475.6183 C109.63,497.0083 112.54,533.7583 123.35,537.1583 " fill="none" id="Interface-apoint21" style="stroke:#181818;stroke-width:1.0;"/><text fill="#000000" font-family="sans-serif" font-size="13" lengthAdjust="spacing" textLength="7" x="103.1694" y="496.8863">1</text></g><!--link apoint21 to Interface--><g id="link_apoint21_Interface"><path d="M126.75,537.1583 C138.19,533.7583 141.28,497.0083 136.01,475.6183 " fill="none" id="apoint21-Interface" style="stroke:#181818;stroke-width:1.0;"/><text fill="#000000" font-family="sans-serif" font-size="13" lengthAdjust="spacing" textLength="7" x="131.4038" y="496.8863">1</text></g><!--link apoint21 to Link--><g id="link_apoint21_Link"><path d="M125,540.4983 C125,547.0083 125,581.1583 125,601.3783 " fill="none" id="apoint21-Link" style="stroke:#181818;stroke-width:1.0;stroke-dasharray:7.0,7.0;"/></g><!--SRC=[dP2n3e8m48RtFiMban8XkZ8ukPWGOnpOIpb3WxHDgPg-lRKA660WJcs-VFVVdwj4YO2DjWuQR0eqX5mOho6AOpXAY-RAE99CSMQ5aYDyFk13S1pHV9P-Ocb4mMEwez1dfg0hrmhERWw4XFsmRP7TbVXBtYQ9zqErYPjFWxln5DgxrifOBA5mysw-rFNF2UrJcNU7i9dsPwCXwfluWycg_s-68wyXWKp8chm0]--></g></svg>